<?xml version="1.0" ?><svg style="enable-background:new 0 0 94.518 47;" version="1.1" viewBox="0 0 94.518 47" xml:space="preserve" xmlns="http://www.w3.org/2000/svg" xmlns:xlink="http://www.w3.org/1999/xlink"><g id="videocamera"><path d="M94.518,7.936L67,20.758V3.416c0-2.844-0.572-3.076-3.416-3.076H5.4C2.557,0.34,0,0.573,0,3.416v38.103   c0,2.844,2.557,5.821,5.4,5.821h58.184c2.844,0,3.416-2.977,3.416-5.821V24.782l26.854,13.371L94.518,7.936z M5.474,42.34   C4.915,42.34,4,41.986,4,41.428V3.414C4,2.856,4.915,4.34,5.474,4.34h4.15C9.556,4.34,9,3.062,9,3.414v38.013   c0,0.386,0.566,0.912,0.646,0.912H5.474z M16.317,42.34H13v0.035c0-0.159,0-0.529,0-0.947V3.414c0-0.418,0-0.788,0-0.947V4.34   h3.317C16.25,4.34,15,3.062,15,3.414v38.013C15,41.781,16.25,42.34,16.317,42.34z M64,41.428c0,0.558,0.114,0.912-0.444,0.912H22   v0.035c0-0.159-2-0.529-2-0.947V3.414c0-0.418,2-0.788,2-0.947V4.34h41.556C64.114,4.34,64,2.856,64,3.414V41.428z M91.086,31.477   l-17.122-8.665l17.251-8.299L91.086,31.477z"/></g><g id="Слой_1"/></svg>